#!OML:ASF H:\Not Pregnant\Project 1\Capture day 1\Session 1\non-pregnant.ASF
:FULLY-SPECIFIED
:DEGREES
280
root -6.57294 16.2114 5.70553 -173.603 -2.6754 -172.804
lowerback 0.597386 1.81585 7.47098
upperback -6.61804 2.36831 1.36246
thorax -7.02585 0.565826 -2.86749
lowerneck 25.3079 -6.14683 -29.0302
upperneck -9.61624 -19.4611 42.4635
head 0.848014 -13.8625 22.2945
rclavicle -4.83295e-015 -2.15681e-014
rhumerus -35.071 -6.16931 -82.1752
rradius 25.6401
rwrist 23.1769
rhand -10.9318 -1.36028
rfingers 7.12502
rthumb 15.0862 -30.7905
lclavicle -4.83295e-015 -2.15681e-014
lhumerus -43.7028 -9.23003 92.3053
lradius 32.0155
lwrist 32.8346
lhand -12.9852 -11.1544
lfingers 7.12502
lthumb 13.1074 18.4137
rfemur -24.1309 -3.62099 35.1774
rtibia 33.0522
rfoot -16.3819 16.3139
rtoes 4.55199
lfemur -27.9988 6.41314 -12.5489
ltibia 67.7733
lfoot -9.05335 -8.08364
ltoes -32.3275
281
root -6.58051 16.2072 5.57956 -173.634 -2.46459 -172.793
lowerback 0.781399 1.91853 7.49516
upperback -6.50688 2.53624 1.28576
thorax -6.99156 0.65775 -2.97718
lowerneck 25.3219 -6.19339 -28.9561
upperneck -9.71477 -19.5268 42.5999
head 0.861506 -13.9239 22.3531
rclavicle -2.21148e-014 -2.28602e-014
rhumerus -34.4789 -5.77594 -82.5102
rradius 25.6579
rwrist 23.1631
rhand -11.0191 -1.37092
rfingers 7.12502
rthumb 15.0021 -30.8075
lclavicle -2.21148e-014 -2.28602e-014
lhumerus -43.7242 -9.63042 92.3261
lradius 32.5233
lwrist 33.3062
lhand -13.5515 -11.6684
lfingers 7.12502
lthumb 12.5615 17.934
rfemur -23.5425 -3.48752 35.1543
rtibia 33.0872
rfoot -16.97 16.1344
rtoes 4.28098
lfemur -29.4635 6.72399 -12.6457
ltibia 67.9483
lfoot -10.157 -5.92253
ltoes -32.5437
282
root -6.58936 16.2024 5.45287 -173.702 -2.26776 -172.734
lowerback 0.992892 2.01398 7.59454
upperback -6.39453 2.70012 1.21815
thorax -6.97001 0.742752 -3.12005
lowerneck 25.3384 -6.23556 -28.8925
upperneck -9.78349 -19.5948 42.72
head 0.882024 -13.984 22.4028
rclavicle -1.18898e-014 -7.35503e-015
rhumerus -33.9059 -5.38705 -82.8323
rradius 25.6773
rwrist 23.1338
rhand -11.0564 -1.36148
rfingers 7.12502
rthumb 14.9662 -30.8007
lclavicle -1.18898e-014 -7.35503e-015
lhumerus -43.7513 -9.94385 92.2891
lradius 33.0378
lwrist 33.7837
lhand -14.0981 -12.1288
lfingers 7.12502
lthumb 12.0345 17.5052
rfemur -22.8871 -3.38705 35.1731
rtibia 33.0669
rfoot -17.5394 15.9753
rtoes 3.97367
lfemur -30.8371 6.96246 -12.6903
ltibia 67.9335
lfoot -11.0317 -3.86176
ltoes -32.4275
283
root -6.59943 16.1973 5.32557 -173.796 -2.07868 -172.629
lowerback 1.23208 2.10233 7.75685
upperback -6.29053 2.85965 1.16455
thorax -6.97178 0.820397 -3.28433
lowerneck 25.3676 -6.26597 -28.8436
upperneck -9.8205 -19.6558 42.8173
head 0.903635 -14.0374 22.4446
rclavicle 9.29318e-015 -1.49089e-014
rhumerus -33.3669 -4.99089 -83.139
rradius 25.7051
rwrist 23.0786
rhand -11.0521 -1.32175
rfingers 7.12502
rthumb 14.9703 -30.7607
lclavicle 9.29318e-015 -1.49089e-014
lhumerus -43.7873 -10.1684 92.205
lradius 33.5419
lwrist 34.258
lhand -14.6173 -12.4849
lfingers 7.12502
lthumb 11.5339 17.1778
rfemur -22.1706 -3.29674 35.2292
rtibia 32.9839
rfoot -18.0787 15.8247
rtoes 3.62932
lfemur -32.1297 7.13247 -12.684
ltibia 67.7414
lfoot -11.6989 -1.92034
ltoes -32.0285
284
root -6.61062 16.1919 5.1981 -173.904 -1.90117 -172.476
lowerback 1.48897 2.18484 7.98507
upperback -6.19114 3.01616 1.12385
thorax -6.9864 0.891719 -3.47271
lowerneck 25.3142 -6.26596 -29.0274
upperneck -9.56186 -19.8131 42.5524
head 0.956772 -14.1007 22.9599
rclavicle -2.50966e-014 1.76918e-014
rhumerus -32.8422 -4.60177 -83.429
rradius 25.7396
rwrist 23.0151
rhand -10.966 -1.28034
rfingers 7.12502
rthumb 15.0532 -30.7131
lclavicle -2.50966e-014 1.76918e-014
lhumerus -43.8178 -10.3156 92.077
lradius 34.0342
lwrist 34.7217
lhand -15.1033 -12.7491
lfingers 7.12502
lthumb 11.0651 16.9392
rfemur -21.4078 -3.21299 35.3282
rtibia 32.8311
rfoot -18.5798 15.6849
rtoes 3.29669
lfemur -33.3604 7.23562 -12.6231
ltibia 67.3822
lfoot -12.2207 -0.0722289
ltoes -31.5276
285
root -6.62268 16.1866 5.07031 -174.013 -1.72872 -172.286
lowerback 1.75983 2.26323 8.25936
upperback -6.10368 3.17094 1.09592
thorax -7.01989 0.957716 -3.67441
lowerneck 25.3316 -6.29325 -28.9952
upperneck -9.5484 -19.8701 42.6053
head 0.987183 -14.1426 22.9769
rclavicle 4.91992e-015 -2.34566e-014
rhumerus -32.345 -4.21974 -83.7001
rradius 25.7891
rwrist 22.9488
rhand -10.8144 -1.22842
rfingers 7.12502
rthumb 15.1993 -30.6501
lclavicle 4.91992e-015 -2.34566e-014
lhumerus -43.8448 -10.395 91.9183
lradius 34.5047
lwrist 35.2014
lhand -15.5538 -12.939
lfingers 7.12502
lthumb 10.6306 16.7721
rfemur -20.6077 -3.1172 35.46
rtibia 32.6062
rfoot -19.039 15.5436
rtoes 2.98
lfemur -34.5373 7.27928 -12.5173
ltibia 66.8561
lfoot -12.6066 1.6747
ltoes -30.8935
286
root -6.63566 16.1825 4.94256 -174.105 -1.55961 -172.073
lowerback 2.03037 2.33912 8.56698
upperback -6.03193 3.32411 1.07498
thorax -7.06799 1.01887 -3.888
lowerneck 25.342 -6.31991 -28.9675
upperneck -9.51278 -19.9226 42.636
head 1.01969 -14.1771 22.9778
rclavicle 1.72694e-014 -8.15017e-015
rhumerus -31.8694 -3.83892 -83.9595
rradius 25.8405
rwrist 22.8865
rhand -10.6327 -1.18879
rfingers 7.12502
rthumb 15.3743 -30.5972
lclavicle 1.72694e-014 -8.15017e-015
lhumerus -43.876 -10.4052 91.7271
lradius 34.9552
lwrist 35.6697
lhand -15.9436 -13.0696
lfingers 7.12502
lthumb 10.2546 16.6604
rfemur -19.7878 -3.01475 35.6113
rtibia 32.305
rfoot -19.4461 15.4121
rtoes 2.67166
lfemur -35.6722 7.26814 -12.3828
ltibia 66.1589
lfoot -12.9055 3.32043
ltoes -30.2256
